<svg width="26" height="30" viewBox="0 0 26 30" fill="none" xmlns="http://www.w3.org/2000/svg">
<path d="M14.6287 0C15.0149 0 15.3119 0.315 15.3119 0.69V5.52C15.3119 8.265 17.5545 10.515 20.2723 10.53C21.401 10.53 22.2921 10.545 22.9752 10.545L23.2283 10.5439C23.6848 10.5404 24.2995 10.53 24.8317 10.53C25.203 10.53 25.5 10.83 25.5 11.205V23.265C25.5 26.985 22.5149 30 18.8317 30H7.0099C3.14851 30 0 26.835 0 22.935V6.765C0 3.045 3 0 6.69802 0H14.6287ZM16.2178 19.35H8.13861C7.5297 19.35 7.02475 19.845 7.02475 20.46C7.02475 21.075 7.5297 21.585 8.13861 21.585H16.2178C16.8267 21.585 17.3317 21.075 17.3317 20.46C17.3317 19.845 16.8267 19.35 16.2178 19.35ZM13.1584 11.85H8.13861C7.5297 11.85 7.02475 12.36 7.02475 12.975C7.02475 13.59 7.5297 14.085 8.13861 14.085H13.1584C13.7673 14.085 14.2723 13.59 14.2723 12.975C14.2723 12.36 13.7673 11.85 13.1584 11.85ZM17.476 1.359C17.476 0.7125 18.2528 0.3915 18.6968 0.858C20.3023 2.544 23.1077 5.4915 24.676 7.1385C25.1097 7.593 24.7919 8.3475 24.1666 8.349C22.9458 8.3535 21.5067 8.349 20.4716 8.3385C18.829 8.3385 17.476 6.972 17.476 5.313V1.359Z" fill="#2F2E41"/>
</svg>
